<svg width="20" height="20" viewBox="0 0 20 20" fill="none" xmlns="http://www.w3.org/2000/svg">
<g clip-path="url(#clip0_16709_746)">
<path d="M10 0C4.48601 0 0 4.48601 0 10C0 15.514 4.48601 20 10 20C15.514 20 20 15.514 20 10C20 4.48601 15.514 0 10 0ZM10 18.9189C7.55017 18.9189 5.32811 17.9259 3.71464 16.3216C3.07031 15.6809 2.52334 14.9425 2.09746 14.131C1.4488 12.8952 1.0811 11.4898 1.0811 10C1.0811 5.0821 5.0821 1.0811 10 1.0811C12.3327 1.0811 14.4586 1.98165 16.0496 3.45288C16.8745 4.2156 17.5556 5.13156 18.0468 6.15535C18.6056 7.32017 18.9189 8.62417 18.9189 10C18.9189 14.9179 14.9179 18.9189 10 18.9189Z" fill="black"/>
<path d="M16.216 9.99994H15.1349C15.1349 12.8378 12.8313 15.135 9.99986 15.135C7.1684 15.135 4.86479 12.8378 4.86479 9.99994H3.78369C3.78369 13.4459 6.57231 16.2161 9.99986 16.2161C13.4275 16.2161 16.216 13.4459 16.216 9.99994Z" fill="black"/>
<path d="M6.66654 8.85134C7.26362 8.85134 7.74764 8.36732 7.74764 7.77024C7.74764 7.17317 7.26362 6.68915 6.66654 6.68915C6.06947 6.68915 5.58545 7.17317 5.58545 7.77024C5.58545 8.36732 6.06947 8.85134 6.66654 8.85134Z" fill="black"/>
<path d="M13.356 8.85134C13.9531 8.85134 14.4371 8.36732 14.4371 7.77024C14.4371 7.17317 13.9531 6.68915 13.356 6.68915C12.7589 6.68915 12.2749 7.17317 12.2749 7.77024C12.2749 8.36732 12.7589 8.85134 13.356 8.85134Z" fill="black"/>
</g>
<defs>
<clipPath id="clip0_16709_746">
<rect width="20" height="20" fill="white"/>
</clipPath>
</defs>
</svg>
